<?xml version="1.0" encoding="UTF-8"?>
<svg id="Layer_1" data-name="Layer 1" xmlns="http://www.w3.org/2000/svg" viewBox="0 0 1149.4 307">
  <defs>
    <style>
      .cls-1, .cls-2 {
        stroke-width: 0px;
      }

      .cls-2 {
        fill: #3862f8;
      }
    </style>
  </defs>
  <g id="Text">
    <path class="cls-1" d="m499.24,241.72c-19.25,0-27.08-11.75-29.04-27.43h-1.63c-7.18,20.57-25.12,31.34-48.61,31.34-35.56,0-56.44-19.59-56.44-50.93s22.84-49.3,71.77-49.3h33.28v-16.65c0-23.83-13.05-36.9-39.8-36.9-20.23,0-33.6,9.8-42.74,25.14l-15.66-14.69c9.13-17.96,29.36-32.98,59.7-32.98,40.45,0,64.59,21.22,64.59,56.81v92.73h19.25v22.86h-14.67Zm-30.66-48.98v-27.75h-34.58c-29.69,0-43.06,9.14-43.06,25.47v6.86c0,16.65,13.05,26.12,33.28,26.12,25.76,0,44.36-13.39,44.36-30.7Z"/>
    <path class="cls-1" d="m658.76,214.29h-1.3c-10.11,20.9-26.1,31.34-49.26,31.34-42.08,0-68.51-34.28-68.51-88.16s26.42-88.16,68.51-88.16c23.16,0,40.45,10.12,49.26,31.34h1.3v-27.43h26.1v233.78h-26.1v-92.71Zm0-26.45v-62.69c0-18.61-19.57-32.32-43.39-32.32-29.36,0-47.63,20.24-47.63,50.28v28.73c0,30.04,18.27,50.28,47.63,50.28,23.82,0,43.39-12.4,43.39-34.28Z"/>
    <path class="cls-1" d="m727.92,157.48c0-53.55,30.01-88.16,75.69-88.16s72.75,34.61,72.75,82.28v12.41h-121.03v7.84c0,29.06,18.6,50.94,49.91,50.94,21.21,0,37.52-10.45,46.33-29.06l18.59,13.39c-10.77,22.86-34.91,38.53-66.55,38.53-45.68-.02-75.69-34.62-75.69-88.17Zm27.4-15.35v2.29h92.98v-3.59c0-29.71-17.94-49.63-44.69-49.63-28.39,0-48.29,21.55-48.29,50.93Z"/>
    <path class="cls-1" d="m907.01,157.48c0-53.55,30.01-88.16,75.69-88.16s72.75,34.61,72.75,82.28v12.41h-121.03v7.84c0,29.06,18.6,50.94,49.91,50.94,21.21,0,37.52-10.45,46.33-29.06l18.59,13.39c-10.77,22.86-34.91,38.53-66.55,38.53-45.67-.02-75.69-34.62-75.69-88.17Zm27.41-15.35v2.29h92.98v-3.59c0-29.71-17.94-49.63-44.69-49.63-28.39,0-48.29,21.55-48.29,50.93Z"/>
    <path class="cls-1" d="m1126.24,241.72c-17.94,0-27.73-11.43-27.73-27.1V.1h26.1v218.76h24.79v22.86h-23.16Z"/>
  </g>
  <g id="Icon">
    <path class="cls-2" d="m175.55,305.93c-16.89,0-43.63,1.11-58.67-2.1l-.55-.13c-41.81-10.77-73.39-33.49-93.87-67.55C3.56,204.71.51,173.69.08,161.82c-.86-23.51,4.63-60.55,27.45-92.73C47.54,40.87,88.3,5,164.33.1c45.51-1.4,83.29,12.7,111.51,35.88,30.69,23.56,46.26,57.76,46.26,101.66v168.41h-27v-168.41c0-35.63-11.73-61.92-35.85-80.36l-.39-.31c-9.32-7.68-26.28-19.54-52.07-25.83-23.31-5.68-47.95-5.6-71.34-.24-36.82,8.45-66.59,26.68-85.81,53.77-18.95,26.71-23.25,57.94-22.59,76.16.28,7.63,2.44,34.62,18.54,61.41,16.65,27.69,42.61,46.28,77.18,55.25,16.38,3.4,55.84,3.15,68.17,2.84l-.13,25.73c-.16-.01-6.61-.13-15.26-.13Z"/>
    <path class="cls-2" d="m232.01,306.05h-27v-158.98c0-11.39-4.88-21.57-17.22-27.57-10.4-5.08-24.6-5.73-33.94-3.46-16.99,4.17-26.7,10.52-34.45,25.92-4.2,9.52-3.25,20.56,1.21,30.52.87,1.95,1.84,3.84,2.87,5.61,6.85,11.76,19.83,19.07,33.86,19.07h33.61v27h-33.6c-23.6,0-45.52-12.44-57.19-32.48-1.51-2.59-2.92-5.34-4.18-8.16-7.58-16.92-8.87-34.14-1.16-52.59,8.08-19.32,30.46-38.84,55.54-41.61,18.94-2.16,30.06-1.4,48.56,6.09,20.18,8.51,33.1,25.96,33.1,51.67v158.97h-.01Z"/>
  </g>
</svg>