<svg width="630" height="400" viewBox="0 0 630 400" fill="none" xmlns="http://www.w3.org/2000/svg">
<rect width="630" height="400" rx="4" fill="#DBE3F9"/>
<line x1="104" y1="54.866" x2="577.943" y2="54.866" stroke="#C0C0C0" stroke-width="0.687966" stroke-dasharray="1.38 2.75"/>
<line x1="104" y1="243.019" x2="577.943" y2="243.019" stroke="#C0C0C0" stroke-width="0.687966" stroke-dasharray="1.38 2.75"/>
<line x1="104" y1="148.942" x2="577.943" y2="148.942" stroke="#C0C0C0" stroke-width="0.687966" stroke-dasharray="1.38 2.75"/>
<line x1="104" y1="337.095" x2="577.943" y2="337.095" stroke="#C0C0C0" stroke-width="0.687966" stroke-dasharray="1.38 2.75"/>
<line x1="104" y1="101.904" x2="577.943" y2="101.904" stroke="#C0C0C0" stroke-width="0.687966" stroke-dasharray="1.38 2.75"/>
<line x1="104" y1="290.057" x2="577.943" y2="290.057" stroke="#C0C0C0" stroke-width="0.687966" stroke-dasharray="1.38 2.75"/>
<line x1="104" y1="195.98" x2="577.943" y2="195.98" stroke="#C0C0C0" stroke-width="0.687966" stroke-dasharray="1.38 2.75"/>
<line x1="104" y1="78.385" x2="577.943" y2="78.385" stroke="#C0C0C0" stroke-width="0.687966" stroke-dasharray="1.38 2.75"/>
<line x1="104" y1="266.537" x2="577.943" y2="266.537" stroke="#C0C0C0" stroke-width="0.687966" stroke-dasharray="1.38 2.75"/>
<line x1="104" y1="172.461" x2="577.943" y2="172.461" stroke="#C0C0C0" stroke-width="0.687966" stroke-dasharray="1.38 2.75"/>
<line x1="104" y1="125.423" x2="577.943" y2="125.423" stroke="#C0C0C0" stroke-width="0.687966" stroke-dasharray="1.38 2.75"/>
<line x1="104" y1="313.576" x2="577.943" y2="313.576" stroke="#C0C0C0" stroke-width="0.687966" stroke-dasharray="1.38 2.75"/>
<line x1="104" y1="219.5" x2="577.943" y2="219.5" stroke="#C0C0C0" stroke-width="0.687966" stroke-dasharray="1.38 2.75"/>
<path d="M225.072 358.969V358.154H227.219V351.968H227.142L225.204 353.773L224.665 353.19L226.701 351.286H228.143V358.154H230.125V358.969H225.072ZM236.057 358.969L234.186 351.286H235.165L235.991 354.984L236.629 357.857H236.651L237.367 354.984L238.336 351.286H239.392L240.328 354.984L241.043 357.846H241.076L241.737 354.984L242.607 351.286H243.553L241.583 358.969H240.559L239.557 355.138L238.853 352.32H238.831L238.104 355.138L237.081 358.969H236.057ZM245.123 358.969V351.286H249.812V352.1H246.048V354.676H249.592V355.49H246.048V358.154H249.812V358.969H245.123ZM251.871 358.969V351.286H256.56V352.1H252.795V354.676H256.34V355.49H252.795V358.154H256.56V358.969H251.871ZM260.633 355.193L259.543 356.404V358.969H258.618V351.286H259.543V355.369H259.576L260.677 354.037L262.999 351.286H264.133L261.271 354.577L264.331 358.969H263.187L260.633 355.193Z" fill="#767675"/>
<path d="M406.076 354.544C406.597 354.544 406.986 354.426 407.243 354.192C407.507 353.949 407.639 353.641 407.639 353.267V353.19C407.639 352.786 407.51 352.485 407.254 352.287C407.004 352.082 406.674 351.979 406.263 351.979C405.867 351.979 405.544 352.067 405.294 352.243C405.045 352.412 404.839 352.643 404.678 352.937L403.995 352.408C404.091 352.254 404.204 352.104 404.337 351.957C404.476 351.803 404.637 351.667 404.821 351.55C405.004 351.432 405.217 351.337 405.459 351.264C405.702 351.19 405.977 351.153 406.285 351.153C406.608 351.153 406.912 351.197 407.199 351.286C407.485 351.366 407.731 351.491 407.936 351.66C408.149 351.821 408.314 352.023 408.431 352.265C408.556 352.507 408.618 352.783 408.618 353.091C408.618 353.34 408.578 353.564 408.497 353.762C408.424 353.96 408.321 354.133 408.189 354.28C408.057 354.426 407.899 354.551 407.716 354.654C407.54 354.757 407.349 354.834 407.143 354.885V354.929C407.349 354.973 407.547 355.046 407.738 355.149C407.936 355.245 408.108 355.373 408.255 355.534C408.409 355.689 408.53 355.879 408.618 356.107C408.714 356.327 408.762 356.58 408.762 356.866C408.762 357.197 408.699 357.501 408.574 357.78C408.45 358.051 408.274 358.286 408.046 358.484C407.819 358.675 407.543 358.826 407.221 358.936C406.898 359.046 406.542 359.101 406.153 359.101C405.823 359.101 405.529 359.064 405.272 358.991C405.015 358.917 404.788 358.818 404.59 358.694C404.392 358.569 404.215 358.429 404.061 358.275C403.915 358.121 403.783 357.96 403.665 357.791L404.359 357.263C404.454 357.417 404.557 357.556 404.667 357.681C404.784 357.806 404.913 357.912 405.052 358C405.191 358.088 405.349 358.158 405.525 358.209C405.702 358.253 405.907 358.275 406.142 358.275C406.685 358.275 407.096 358.154 407.375 357.912C407.653 357.663 407.793 357.31 407.793 356.855V356.767C407.793 356.312 407.653 355.964 407.375 355.722C407.096 355.472 406.685 355.347 406.142 355.347H405.239V354.544H406.076ZM420.077 352.496H420.022L419.372 353.784L417.534 357.131L415.696 353.784L415.046 352.496H414.991V358.969H414.088V351.286H415.321L417.523 355.424H417.578L419.79 351.286H420.979V358.969H420.077V352.496ZM426.224 359.101C425.725 359.101 425.274 359.016 424.871 358.848C424.474 358.672 424.133 358.418 423.847 358.088C423.568 357.751 423.352 357.336 423.197 356.844C423.043 356.345 422.966 355.773 422.966 355.127C422.966 354.481 423.043 353.913 423.197 353.421C423.352 352.929 423.568 352.515 423.847 352.177C424.133 351.84 424.474 351.586 424.871 351.418C425.274 351.242 425.725 351.153 426.224 351.153C426.716 351.153 427.164 351.242 427.567 351.418C427.971 351.586 428.312 351.84 428.591 352.177C428.877 352.515 429.097 352.929 429.252 353.421C429.406 353.913 429.483 354.481 429.483 355.127C429.483 355.773 429.406 356.345 429.252 356.844C429.097 357.336 428.877 357.751 428.591 358.088C428.312 358.418 427.971 358.672 427.567 358.848C427.164 359.016 426.716 359.101 426.224 359.101ZM426.224 358.275C426.555 358.275 426.859 358.217 427.138 358.099C427.417 357.982 427.655 357.813 427.854 357.593C428.059 357.373 428.217 357.108 428.327 356.8C428.437 356.492 428.492 356.147 428.492 355.766V354.489C428.492 354.107 428.437 353.762 428.327 353.454C428.217 353.146 428.059 352.882 427.854 352.661C427.655 352.441 427.417 352.273 427.138 352.155C426.859 352.038 426.555 351.979 426.224 351.979C425.894 351.979 425.59 352.038 425.311 352.155C425.032 352.273 424.79 352.441 424.584 352.661C424.386 352.882 424.232 353.146 424.122 353.454C424.012 353.762 423.957 354.107 423.957 354.489V355.766C423.957 356.147 424.012 356.492 424.122 356.8C424.232 357.108 424.386 357.373 424.584 357.593C424.79 357.813 425.032 357.982 425.311 358.099C425.59 358.217 425.894 358.275 426.224 358.275ZM433.335 354.28L432.411 352.573H432.378V358.969H431.475V351.286H432.543L435.35 355.975L436.274 357.681H436.307V351.286H437.21V358.969H436.142L433.335 354.28ZM442.175 352.1V358.969H441.25V352.1H438.806V351.286H444.618V352.1H442.175ZM451.028 355.49H447.142V358.969H446.217V351.286H447.142V354.676H451.028V351.286H451.952V358.969H451.028V355.49ZM456.488 359.101C455.864 359.101 455.332 358.983 454.892 358.749C454.451 358.506 454.077 358.176 453.769 357.758L454.451 357.186C454.723 357.545 455.024 357.82 455.354 358.011C455.684 358.195 456.073 358.286 456.521 358.286C457.071 358.286 457.489 358.154 457.776 357.89C458.069 357.626 458.216 357.274 458.216 356.833C458.216 356.466 458.106 356.184 457.886 355.986C457.665 355.788 457.302 355.63 456.796 355.512L456.168 355.369C455.464 355.208 454.925 354.966 454.55 354.643C454.183 354.313 454 353.85 454 353.256C454 352.918 454.062 352.617 454.187 352.353C454.312 352.089 454.484 351.869 454.704 351.693C454.932 351.517 455.2 351.385 455.508 351.297C455.824 351.201 456.168 351.153 456.543 351.153C457.122 351.153 457.618 351.26 458.029 351.473C458.447 351.685 458.799 351.997 459.085 352.408L458.392 352.915C458.179 352.621 457.922 352.39 457.621 352.221C457.321 352.052 456.946 351.968 456.499 351.968C456.007 351.968 455.618 352.074 455.332 352.287C455.053 352.493 454.914 352.805 454.914 353.223C454.914 353.59 455.031 353.869 455.266 354.059C455.508 354.243 455.871 354.39 456.356 354.5L456.983 354.643C457.739 354.812 458.286 355.068 458.623 355.413C458.961 355.758 459.129 356.217 459.129 356.789C459.129 357.142 459.067 357.461 458.942 357.747C458.825 358.033 458.652 358.275 458.425 358.473C458.197 358.672 457.919 358.826 457.588 358.936C457.266 359.046 456.899 359.101 456.488 359.101Z" fill="#767675"/>
<path d="M313.976 358.969V358.154H316.122V351.968H316.045L314.108 353.773L313.569 353.19L315.605 351.286H317.047V358.154H319.028V358.969H313.976ZM329.881 352.496H329.826L329.177 353.784L327.338 357.131L325.5 353.784L324.851 352.496H324.796V358.969H323.893V351.286H325.126L327.327 355.424H327.382L329.595 351.286H330.784V358.969H329.881V352.496ZM336.029 359.101C335.53 359.101 335.079 359.016 334.675 358.848C334.279 358.672 333.938 358.418 333.651 358.088C333.372 357.751 333.156 357.336 333.002 356.844C332.848 356.345 332.771 355.773 332.771 355.127C332.771 354.481 332.848 353.913 333.002 353.421C333.156 352.929 333.372 352.515 333.651 352.177C333.938 351.84 334.279 351.586 334.675 351.418C335.079 351.242 335.53 351.153 336.029 351.153C336.521 351.153 336.968 351.242 337.372 351.418C337.775 351.586 338.117 351.84 338.396 352.177C338.682 352.515 338.902 352.929 339.056 353.421C339.21 353.913 339.287 354.481 339.287 355.127C339.287 355.773 339.21 356.345 339.056 356.844C338.902 357.336 338.682 357.751 338.396 358.088C338.117 358.418 337.775 358.672 337.372 358.848C336.968 359.016 336.521 359.101 336.029 359.101ZM336.029 358.275C336.359 358.275 336.664 358.217 336.943 358.099C337.221 357.982 337.46 357.813 337.658 357.593C337.864 357.373 338.021 357.108 338.131 356.8C338.241 356.492 338.296 356.147 338.296 355.766V354.489C338.296 354.107 338.241 353.762 338.131 353.454C338.021 353.146 337.864 352.882 337.658 352.661C337.46 352.441 337.221 352.273 336.943 352.155C336.664 352.038 336.359 351.979 336.029 351.979C335.699 351.979 335.394 352.038 335.115 352.155C334.836 352.273 334.594 352.441 334.389 352.661C334.191 352.882 334.037 353.146 333.927 353.454C333.816 353.762 333.761 354.107 333.761 354.489V355.766C333.761 356.147 333.816 356.492 333.927 356.8C334.037 357.108 334.191 357.373 334.389 357.593C334.594 357.813 334.836 357.982 335.115 358.099C335.394 358.217 335.699 358.275 336.029 358.275ZM343.14 354.28L342.215 352.573H342.182V358.969H341.28V351.286H342.347L345.154 355.975L346.079 357.681H346.112V351.286H347.014V358.969H345.947L343.14 354.28ZM351.979 352.1V358.969H351.055V352.1H348.611V351.286H354.423V352.1H351.979ZM360.832 355.49H356.946V358.969H356.022V351.286H356.946V354.676H360.832V351.286H361.757V358.969H360.832V355.49Z" fill="#767675"/>
<path d="M136.371 358.969V358.154H138.517V351.968H138.44L136.503 353.773L135.964 353.19L138 351.286H139.442V358.154H141.423V358.969H136.371ZM146.288 351.286H148.864C149.341 351.286 149.774 351.366 150.163 351.528C150.552 351.689 150.882 351.931 151.153 352.254C151.432 352.57 151.645 352.97 151.792 353.454C151.939 353.931 152.012 354.489 152.012 355.127C152.012 355.766 151.939 356.327 151.792 356.811C151.645 357.288 151.432 357.688 151.153 358.011C150.882 358.327 150.552 358.565 150.163 358.727C149.774 358.888 149.341 358.969 148.864 358.969H146.288V351.286ZM148.864 358.154C149.179 358.154 149.469 358.103 149.733 358C149.998 357.89 150.225 357.732 150.416 357.527C150.607 357.321 150.753 357.072 150.856 356.778C150.966 356.477 151.021 356.136 151.021 355.755V354.5C151.021 354.118 150.966 353.781 150.856 353.487C150.753 353.186 150.607 352.933 150.416 352.728C150.225 352.522 149.998 352.368 149.733 352.265C149.469 352.155 149.179 352.1 148.864 352.1H147.213V358.154H148.864ZM158.684 358.969L157.914 356.701H154.81L154.039 358.969H153.104L155.789 351.286H156.967L159.653 358.969H158.684ZM156.384 352.144H156.329L155.03 355.887H157.683L156.384 352.144ZM162.415 358.969V355.931L159.773 351.286H160.83L162.878 354.984H162.911L164.958 351.286H166.015L163.34 355.898V358.969H162.415Z" fill="#767675"/>
<path d="M507.034 358.969V358.154H509.181V351.968H509.104L507.166 353.773L506.627 353.19L508.663 351.286H510.105V358.154H512.087V358.969H507.034ZM518.712 358.969V355.931L516.071 351.286H517.127L519.175 354.984H519.208L521.255 351.286H522.312L519.637 355.898V358.969H518.712ZM523.806 358.969V351.286H528.495V352.1H524.731V354.676H528.275V355.49H524.731V358.154H528.495V358.969H523.806ZM535.364 358.969L534.594 356.701H531.49L530.719 358.969H529.783L532.469 351.286H533.647L536.333 358.969H535.364ZM533.064 352.144H533.009L531.71 355.887H534.363L533.064 352.144ZM538.86 358.969H537.936V351.286H540.996C541.671 351.286 542.196 351.473 542.57 351.847C542.952 352.221 543.142 352.761 543.142 353.465C543.142 354.03 543.01 354.496 542.746 354.863C542.489 355.223 542.108 355.461 541.601 355.578L543.363 358.969H542.317L540.655 355.667H538.86V358.969ZM540.996 354.874C541.363 354.874 541.645 354.779 541.843 354.588C542.049 354.397 542.152 354.125 542.152 353.773V353.201C542.152 352.849 542.049 352.577 541.843 352.386C541.645 352.195 541.363 352.1 540.996 352.1H538.86V354.874H540.996Z" fill="#767675"/>
<path d="M135 56.3759C135 55.616 135.616 55 136.376 55H166.501C167.261 55 167.877 55.616 167.877 56.3759V336.987H135V56.3759Z" fill="#B7C6FA"/>
<path d="M135 117.584C135 116.824 135.616 116.208 136.376 116.208H166.624C167.384 116.208 168 116.824 168 117.584V336.994H135V117.584Z" fill="#708FFD"/>
<path d="M228 56.3759C228 55.616 228.616 55 229.376 55H259.501C260.261 55 260.877 55.616 260.877 56.3759V336.987H228V56.3759Z" fill="#B7C6FA"/>
<path d="M228 197.723C228 196.963 228.616 196.347 229.376 196.347H259.624C260.384 196.347 261 196.963 261 197.723V337.038H228V197.723Z" fill="#708FFD"/>
<path d="M322 56.3759C322 55.616 322.616 55 323.376 55H353.501C354.261 55 354.877 55.616 354.877 56.3759V336.987H322V56.3759Z" fill="#B7C6FA"/>
<path d="M322 207.585C322 206.825 322.616 206.209 323.376 206.209H353.624C354.384 206.209 355 206.825 355 207.585V337.038H322V207.585Z" fill="#708FFD"/>
<path d="M415 56.3759C415 55.616 415.616 55 416.376 55H446.501C447.261 55 447.877 55.616 447.877 56.3759V336.987H415V56.3759Z" fill="#B7C6FA"/>
<path d="M415 155.648C415 154.888 415.616 154.272 416.376 154.272H446.624C447.384 154.272 448 154.888 448 155.648V337.038H415V155.648Z" fill="#708FFD"/>
<path d="M509 56.3759C509 55.616 509.616 55 510.376 55H540.501C541.261 55 541.877 55.616 541.877 56.3759V336.987H509V56.3759Z" fill="#B7C6FA"/>
<path d="M509 70.8393C509 70.0794 509.616 69.4634 510.376 69.4634H540.624C541.384 69.4634 542 70.0794 542 70.8393V337.038H509V70.8393Z" fill="#708FFD"/>
</svg>
