<svg width="630" height="399" viewBox="0 0 630 399" fill="none" xmlns="http://www.w3.org/2000/svg">
<rect width="630" height="399" rx="4" fill="#DBE3F9"/>
<line x1="108.066" y1="38.8573" x2="574.066" y2="38.8573" stroke="#A0A0A0" stroke-width="0.678065" stroke-dasharray="1.36 2.71"/>
<line x1="108.066" y1="233.813" x2="574.066" y2="233.813" stroke="#A0A0A0" stroke-width="0.678065" stroke-dasharray="1.36 2.71"/>
<line x1="108.066" y1="136.335" x2="574.066" y2="136.335" stroke="#A0A0A0" stroke-width="0.678065" stroke-dasharray="1.36 2.71"/>
<line x1="108.066" y1="331.29" x2="574.066" y2="331.29" stroke="#A0A0A0" stroke-width="0.678065" stroke-dasharray="1.36 2.71"/>
<line x1="108.066" y1="87.5958" x2="574.066" y2="87.5958" stroke="#A0A0A0" stroke-width="0.678065" stroke-dasharray="1.36 2.71"/>
<line x1="108.066" y1="282.551" x2="574.066" y2="282.551" stroke="#A0A0A0" stroke-width="0.678065" stroke-dasharray="1.36 2.71"/>
<line x1="108.066" y1="185.074" x2="574.066" y2="185.074" stroke="#A0A0A0" stroke-width="0.678065" stroke-dasharray="1.36 2.71"/>
<line x1="108.066" y1="63.2266" x2="574.066" y2="63.2266" stroke="#A0A0A0" stroke-width="0.678065" stroke-dasharray="1.36 2.71"/>
<line x1="108.066" y1="258.182" x2="574.066" y2="258.182" stroke="#A0A0A0" stroke-width="0.678065" stroke-dasharray="1.36 2.71"/>
<line x1="108.066" y1="160.704" x2="574.066" y2="160.704" stroke="#A0A0A0" stroke-width="0.678065" stroke-dasharray="1.36 2.71"/>
<line x1="108.066" y1="111.965" x2="574.066" y2="111.965" stroke="#A0A0A0" stroke-width="0.678065" stroke-dasharray="1.36 2.71"/>
<line x1="108.066" y1="306.921" x2="574.066" y2="306.921" stroke="#A0A0A0" stroke-width="0.678065" stroke-dasharray="1.36 2.71"/>
<line x1="108.066" y1="209.443" x2="574.066" y2="209.443" stroke="#A0A0A0" stroke-width="0.678065" stroke-dasharray="1.36 2.71"/>
<path d="M120.602 347.562V353.171C120.602 353.489 120.548 353.779 120.439 354.039C120.331 354.299 120.175 354.52 119.973 354.701C119.778 354.882 119.542 355.023 119.268 355.124C118.993 355.218 118.693 355.265 118.367 355.265C117.789 355.265 117.311 355.117 116.935 354.82C116.559 354.516 116.313 354.093 116.197 353.551L117.065 353.366C117.101 353.518 117.148 353.663 117.206 353.8C117.271 353.931 117.355 354.046 117.456 354.148C117.564 354.242 117.695 354.317 117.846 354.375C117.998 354.433 118.179 354.462 118.389 354.462C118.801 354.462 119.119 354.346 119.344 354.115C119.575 353.876 119.691 353.507 119.691 353.008V348.354H116.957V347.562H120.602ZM127.444 355.135L126.804 352.976H124.145L123.505 355.135H122.562L124.883 347.562H126.087L128.409 355.135H127.444ZM125.523 348.528H125.426L124.362 352.184H126.587L125.523 348.528ZM130.824 348.756H130.748V355.135H129.924V347.562H131.215L133.797 353.941H133.873V347.562H134.697V355.135H133.406L130.824 348.756Z" fill="#767675"/>
<path d="M430.538 355.265C429.859 355.265 429.302 355.142 428.868 354.896C428.434 354.643 428.076 354.321 427.794 353.931L428.455 353.388C428.752 353.757 429.063 354.032 429.388 354.213C429.721 354.393 430.115 354.484 430.571 354.484C431.121 354.484 431.54 354.357 431.83 354.104C432.119 353.851 432.263 353.497 432.263 353.041C432.263 352.672 432.159 352.386 431.949 352.184C431.739 351.974 431.374 351.826 430.853 351.739L430.007 351.598C429.638 351.533 429.327 351.435 429.074 351.305C428.828 351.175 428.629 351.019 428.477 350.839C428.325 350.65 428.217 350.448 428.152 350.231C428.087 350.007 428.054 349.775 428.054 349.537C428.054 348.842 428.282 348.318 428.738 347.964C429.193 347.609 429.808 347.432 430.582 347.432C431.189 347.432 431.699 347.533 432.112 347.736C432.531 347.938 432.867 348.224 433.121 348.593L432.48 349.146C432.271 348.871 432.018 348.647 431.721 348.473C431.424 348.3 431.041 348.213 430.571 348.213C430.058 348.213 429.663 348.322 429.388 348.539C429.114 348.756 428.976 349.081 428.976 349.515C428.976 349.855 429.077 350.133 429.28 350.35C429.49 350.56 429.862 350.712 430.397 350.806L431.211 350.947C431.58 351.012 431.891 351.11 432.144 351.24C432.397 351.37 432.6 351.526 432.752 351.706C432.911 351.887 433.023 352.09 433.088 352.314C433.153 352.538 433.186 352.773 433.186 353.019C433.186 353.721 432.954 354.27 432.491 354.668C432.036 355.066 431.385 355.265 430.538 355.265ZM435.113 355.135V347.562H439.778V348.354H436.024V350.904H439.647V351.696H436.024V354.343H439.778V355.135H435.113ZM441.943 355.135V347.562H444.699C445.4 347.562 445.936 347.754 446.305 348.137C446.673 348.52 446.858 349.056 446.858 349.743C446.858 350.43 446.673 350.965 446.305 351.348C445.936 351.732 445.4 351.923 444.699 351.923H442.855V355.135H441.943ZM442.855 351.131H444.677C445.06 351.131 445.357 351.037 445.567 350.849C445.784 350.654 445.892 350.379 445.892 350.025V349.461C445.892 349.106 445.784 348.835 445.567 348.647C445.357 348.452 445.06 348.354 444.677 348.354H442.855V351.131Z" fill="#767675"/>
<path d="M276.153 351.338V348.94H276.066L274.472 352.835L272.877 348.94H272.79V351.338V355.135H271.955V347.562H273.126L274.461 350.904H274.526L275.86 347.562H276.989V355.135H276.153V351.338ZM283.266 355.135L282.626 352.976H279.968L279.328 355.135H278.384L280.705 347.562H281.91L284.231 355.135H283.266ZM281.346 348.528H281.248L280.185 352.184H282.409L281.346 348.528ZM287.677 355.135V352.162L285.063 347.562H286.104L287.189 349.537L288.111 351.262H288.155L289.098 349.537L290.183 347.562H291.203L288.588 352.162V355.135H287.677Z" fill="#767675"/>
<path d="M198.509 351.338V348.94H198.423L196.828 352.835L195.233 348.94H195.146V351.338V355.135H194.311V347.562H195.482L196.817 350.904H196.882L198.216 347.562H199.345V355.135H198.509V351.338ZM205.622 355.135L204.982 352.976H202.324L201.684 355.135H200.74L203.062 347.562H204.266L206.588 355.135H205.622ZM203.702 348.528H203.604L202.541 352.184H204.765L203.702 348.528ZM209.122 355.135H208.211V347.562H210.966C211.668 347.562 212.203 347.754 212.572 348.137C212.941 348.52 213.125 349.056 213.125 349.743C213.125 350.358 212.966 350.849 212.648 351.218C212.33 351.587 211.867 351.8 211.259 351.858L213.19 355.135H212.171L210.326 351.902H209.122V355.135ZM210.945 351.131C211.328 351.131 211.625 351.037 211.834 350.849C212.051 350.654 212.16 350.379 212.16 350.025V349.461C212.16 349.106 212.051 348.835 211.834 348.647C211.625 348.452 211.328 348.354 210.945 348.354H209.122V351.131H210.945Z" fill="#767675"/>
<path d="M507.249 348.756H507.173V355.135H506.348V347.562H507.639L510.222 353.941H510.297V347.562H511.122V355.135H509.831L507.249 348.756ZM515.566 355.265C515.103 355.265 514.705 355.178 514.372 355.005C514.04 354.824 513.765 354.567 513.548 354.234C513.331 353.902 513.172 353.493 513.071 353.008C512.969 352.524 512.919 351.97 512.919 351.348C512.919 350.734 512.969 350.184 513.071 349.699C513.172 349.208 513.331 348.795 513.548 348.463C513.765 348.13 514.04 347.877 514.372 347.703C514.705 347.522 515.103 347.432 515.566 347.432C516.029 347.432 516.427 347.522 516.759 347.703C517.092 347.877 517.367 348.13 517.584 348.463C517.801 348.795 517.96 349.208 518.061 349.699C518.162 350.184 518.213 350.734 518.213 351.348C518.213 351.97 518.162 352.524 518.061 353.008C517.96 353.493 517.801 353.902 517.584 354.234C517.367 354.567 517.092 354.824 516.759 355.005C516.427 355.178 516.029 355.265 515.566 355.265ZM515.566 354.473C515.87 354.473 516.126 354.415 516.336 354.299C516.546 354.176 516.719 354.006 516.857 353.789C516.994 353.573 517.092 353.312 517.15 353.008C517.215 352.697 517.247 352.35 517.247 351.967V350.73C517.247 350.354 517.215 350.01 517.15 349.699C517.092 349.388 516.994 349.124 516.857 348.907C516.719 348.69 516.546 348.524 516.336 348.408C516.126 348.285 515.87 348.224 515.566 348.224C515.262 348.224 515.005 348.285 514.796 348.408C514.586 348.524 514.412 348.69 514.275 348.907C514.137 349.124 514.036 349.388 513.971 349.699C513.913 350.01 513.884 350.354 513.884 350.73V351.967C513.884 352.35 513.913 352.697 513.971 353.008C514.036 353.312 514.137 353.573 514.275 353.789C514.412 354.006 514.586 354.176 514.796 354.299C515.005 354.415 515.262 354.473 515.566 354.473ZM521.778 355.135L519.532 347.562H520.498L521.572 351.348L522.386 354.213H522.44L523.254 351.348L524.328 347.562H525.261L523.015 355.135H521.778Z" fill="#767675"/>
<path d="M354.87 347.562V353.171C354.87 353.489 354.815 353.779 354.707 354.039C354.598 354.299 354.443 354.52 354.24 354.701C354.045 354.882 353.81 355.023 353.535 355.124C353.26 355.218 352.96 355.265 352.635 355.265C352.056 355.265 351.579 355.117 351.203 354.82C350.827 354.516 350.581 354.093 350.465 353.551L351.333 353.366C351.369 353.518 351.416 353.663 351.474 353.8C351.539 353.931 351.622 354.046 351.723 354.148C351.832 354.242 351.962 354.317 352.114 354.375C352.266 354.433 352.447 354.462 352.656 354.462C353.069 354.462 353.387 354.346 353.611 354.115C353.843 353.876 353.958 353.507 353.958 353.008V348.354H351.224V347.562H354.87ZM358.272 347.562V352.108C358.272 352.477 358.283 352.806 358.305 353.095C358.326 353.384 358.384 353.634 358.478 353.844C358.572 354.046 358.717 354.202 358.912 354.31C359.115 354.419 359.393 354.473 359.747 354.473C360.102 354.473 360.377 354.419 360.572 354.31C360.775 354.202 360.923 354.046 361.017 353.844C361.111 353.634 361.169 353.384 361.19 353.095C361.212 352.806 361.223 352.477 361.223 352.108V347.562H362.134V351.891C362.134 352.455 362.105 352.947 362.047 353.366C361.997 353.786 361.885 354.137 361.711 354.419C361.545 354.701 361.303 354.914 360.984 355.059C360.673 355.196 360.261 355.265 359.747 355.265C359.234 355.265 358.818 355.196 358.5 355.059C358.189 354.914 357.947 354.701 357.773 354.419C357.607 354.137 357.495 353.786 357.437 353.366C357.386 352.947 357.361 352.455 357.361 351.891V347.562H358.272ZM364.625 355.135V347.562H365.537V354.343H369.128V355.135H364.625Z" fill="#767675"/>
<path d="M155.591 355.135V347.562H160.364V348.354H156.502V350.904H160.039V351.696H156.502V355.135H155.591ZM162.422 355.135V347.562H167.087V348.354H163.333V350.904H166.956V351.696H163.333V354.343H167.087V355.135H162.422ZM169.231 347.562H171.802C172.453 347.562 172.963 347.739 173.331 348.094C173.7 348.448 173.885 348.922 173.885 349.515C173.885 349.971 173.773 350.329 173.548 350.589C173.331 350.849 173.049 351.034 172.702 351.142V351.175C173.129 351.276 173.48 351.468 173.755 351.75C174.029 352.025 174.167 352.426 174.167 352.954C174.167 353.258 174.116 353.544 174.015 353.811C173.914 354.079 173.769 354.31 173.581 354.506C173.4 354.701 173.183 354.856 172.93 354.972C172.684 355.081 172.417 355.135 172.127 355.135H169.231V347.562ZM171.856 354.343C172.275 354.343 172.605 354.249 172.843 354.061C173.082 353.873 173.201 353.583 173.201 353.193V352.748C173.201 352.365 173.082 352.079 172.843 351.891C172.605 351.696 172.275 351.598 171.856 351.598H170.142V354.343H171.856ZM171.704 350.849C172.087 350.849 172.388 350.766 172.605 350.6C172.822 350.426 172.93 350.166 172.93 349.819V349.396C172.93 349.048 172.822 348.788 172.605 348.614C172.388 348.441 172.087 348.354 171.704 348.354H170.142V350.849H171.704Z" fill="#767675"/>
<path d="M469.516 355.265C469.053 355.265 468.655 355.178 468.322 355.005C467.99 354.824 467.715 354.567 467.498 354.234C467.281 353.902 467.122 353.493 467.02 353.008C466.919 352.524 466.869 351.97 466.869 351.348C466.869 350.734 466.919 350.184 467.02 349.699C467.122 349.208 467.281 348.795 467.498 348.463C467.715 348.13 467.99 347.877 468.322 347.703C468.655 347.522 469.053 347.432 469.516 347.432C469.979 347.432 470.376 347.522 470.709 347.703C471.042 347.877 471.317 348.13 471.534 348.463C471.751 348.795 471.91 349.208 472.011 349.699C472.112 350.184 472.163 350.734 472.163 351.348C472.163 351.97 472.112 352.524 472.011 353.008C471.91 353.493 471.751 353.902 471.534 354.234C471.317 354.567 471.042 354.824 470.709 355.005C470.376 355.178 469.979 355.265 469.516 355.265ZM469.516 354.473C469.819 354.473 470.076 354.415 470.286 354.299C470.496 354.176 470.669 354.006 470.807 353.789C470.944 353.573 471.042 353.312 471.1 353.008C471.165 352.697 471.197 352.35 471.197 351.967V350.73C471.197 350.354 471.165 350.01 471.1 349.699C471.042 349.388 470.944 349.124 470.807 348.907C470.669 348.69 470.496 348.524 470.286 348.408C470.076 348.285 469.819 348.224 469.516 348.224C469.212 348.224 468.955 348.285 468.745 348.408C468.536 348.524 468.362 348.69 468.225 348.907C468.087 349.124 467.986 349.388 467.921 349.699C467.863 350.01 467.834 350.354 467.834 350.73V351.967C467.834 352.35 467.863 352.697 467.921 353.008C467.986 353.312 468.087 353.573 468.225 353.789C468.362 354.006 468.536 354.176 468.745 354.299C468.955 354.415 469.212 354.473 469.516 354.473ZM476.596 355.265C475.67 355.265 474.979 354.929 474.524 354.256C474.075 353.583 473.851 352.614 473.851 351.348C473.851 350.083 474.075 349.114 474.524 348.441C474.979 347.768 475.67 347.432 476.596 347.432C476.943 347.432 477.243 347.479 477.496 347.573C477.749 347.667 477.966 347.794 478.147 347.953C478.328 348.112 478.48 348.293 478.603 348.495C478.726 348.69 478.834 348.889 478.928 349.092L478.147 349.45C478.082 349.284 478.006 349.128 477.919 348.983C477.833 348.831 477.728 348.701 477.605 348.593C477.489 348.477 477.348 348.387 477.182 348.322C477.023 348.256 476.827 348.224 476.596 348.224C475.996 348.224 475.547 348.452 475.251 348.907C474.961 349.363 474.817 349.971 474.817 350.73V351.967C474.817 352.726 474.961 353.334 475.251 353.789C475.547 354.245 475.996 354.473 476.596 354.473C476.827 354.473 477.023 354.44 477.182 354.375C477.348 354.31 477.489 354.223 477.605 354.115C477.728 353.999 477.833 353.869 477.919 353.724C478.006 353.573 478.082 353.413 478.147 353.247L478.928 353.605C478.834 353.815 478.726 354.017 478.603 354.213C478.48 354.408 478.328 354.585 478.147 354.744C477.966 354.903 477.749 355.03 477.496 355.124C477.243 355.218 476.943 355.265 476.596 355.265ZM483.633 348.354V355.135H482.721V348.354H480.194V347.562H486.16V348.354H483.633Z" fill="#767675"/>
<path d="M315.646 347.562V353.171C315.646 353.489 315.592 353.779 315.484 354.039C315.375 354.299 315.22 354.52 315.017 354.701C314.822 354.882 314.587 355.023 314.312 355.124C314.037 355.218 313.737 355.265 313.411 355.265C312.833 355.265 312.355 355.117 311.979 354.82C311.603 354.516 311.357 354.093 311.242 353.551L312.109 353.366C312.146 353.518 312.193 353.663 312.25 353.8C312.316 353.931 312.399 354.046 312.5 354.148C312.609 354.242 312.739 354.317 312.891 354.375C313.042 354.433 313.223 354.462 313.433 354.462C313.845 354.462 314.164 354.346 314.388 354.115C314.619 353.876 314.735 353.507 314.735 353.008V348.354H312.001V347.562H315.646ZM319.049 347.562V352.108C319.049 352.477 319.059 352.806 319.081 353.095C319.103 353.384 319.161 353.634 319.255 353.844C319.349 354.046 319.493 354.202 319.689 354.31C319.891 354.419 320.17 354.473 320.524 354.473C320.878 354.473 321.153 354.419 321.349 354.31C321.551 354.202 321.699 354.046 321.793 353.844C321.887 353.634 321.945 353.384 321.967 353.095C321.989 352.806 322 352.477 322 352.108V347.562H322.911V351.891C322.911 352.455 322.882 352.947 322.824 353.366C322.773 353.786 322.661 354.137 322.488 354.419C322.321 354.701 322.079 354.914 321.761 355.059C321.45 355.196 321.038 355.265 320.524 355.265C320.011 355.265 319.595 355.196 319.276 355.059C318.965 354.914 318.723 354.701 318.55 354.419C318.383 354.137 318.271 353.786 318.213 353.366C318.163 352.947 318.137 352.455 318.137 351.891V347.562H319.049ZM325.868 348.756H325.792V355.135H324.968V347.562H326.259L328.841 353.941H328.917V347.562H329.742V355.135H328.45L325.868 348.756Z" fill="#767675"/>
<path d="M237.478 355.135L236.838 352.976H234.18L233.54 355.135H232.596L234.918 347.562H236.122L238.444 355.135H237.478ZM235.558 348.528H235.46L234.397 352.184H236.621L235.558 348.528ZM240.067 355.135V347.562H242.823C243.524 347.562 244.059 347.754 244.428 348.137C244.797 348.52 244.981 349.056 244.981 349.743C244.981 350.43 244.797 350.965 244.428 351.348C244.059 351.732 243.524 351.923 242.823 351.923H240.978V355.135H240.067ZM240.978 351.131H242.801C243.184 351.131 243.481 351.037 243.69 350.849C243.907 350.654 244.016 350.379 244.016 350.025V349.461C244.016 349.106 243.907 348.835 243.69 348.647C243.481 348.452 243.184 348.354 242.801 348.354H240.978V351.131ZM247.809 355.135H246.898V347.562H249.653C250.355 347.562 250.89 347.754 251.259 348.137C251.628 348.52 251.812 349.056 251.812 349.743C251.812 350.358 251.653 350.849 251.335 351.218C251.017 351.587 250.554 351.8 249.946 351.858L251.877 355.135H250.857L249.013 351.902H247.809V355.135ZM249.631 351.131C250.015 351.131 250.311 351.037 250.521 350.849C250.738 350.654 250.847 350.379 250.847 350.025V349.461C250.847 349.106 250.738 348.835 250.521 348.647C250.311 348.452 250.015 348.354 249.631 348.354H247.809V351.131H249.631Z" fill="#767675"/>
<path d="M545.47 347.562H547.586C548.511 347.562 549.202 347.88 549.658 348.517C550.114 349.153 550.341 350.097 550.341 351.348C550.341 352.6 550.114 353.544 549.658 354.18C549.202 354.817 548.511 355.135 547.586 355.135H545.47V347.562ZM547.542 354.343C548.15 354.343 548.606 354.133 548.909 353.714C549.22 353.294 549.376 352.701 549.376 351.934V350.763C549.376 349.996 549.22 349.403 548.909 348.983C548.606 348.564 548.15 348.354 547.542 348.354H546.381V354.343H547.542ZM552.247 355.135V347.562H556.912V348.354H553.158V350.904H556.781V351.696H553.158V354.343H556.912V355.135H552.247ZM561.605 355.265C560.679 355.265 559.989 354.929 559.533 354.256C559.084 353.583 558.86 352.614 558.86 351.348C558.86 350.083 559.084 349.114 559.533 348.441C559.989 347.768 560.679 347.432 561.605 347.432C561.952 347.432 562.252 347.479 562.505 347.573C562.759 347.667 562.976 347.794 563.156 347.953C563.337 348.112 563.489 348.293 563.612 348.495C563.735 348.69 563.844 348.889 563.938 349.092L563.156 349.45C563.091 349.284 563.015 349.128 562.929 348.983C562.842 348.831 562.737 348.701 562.614 348.593C562.498 348.477 562.357 348.387 562.191 348.322C562.032 348.256 561.836 348.224 561.605 348.224C561.005 348.224 560.556 348.452 560.26 348.907C559.97 349.363 559.826 349.971 559.826 350.73V351.967C559.826 352.726 559.97 353.334 560.26 353.789C560.556 354.245 561.005 354.473 561.605 354.473C561.836 354.473 562.032 354.44 562.191 354.375C562.357 354.31 562.498 354.223 562.614 354.115C562.737 353.999 562.842 353.869 562.929 353.724C563.015 353.573 563.091 353.413 563.156 353.247L563.938 353.605C563.844 353.815 563.735 354.017 563.612 354.213C563.489 354.408 563.337 354.585 563.156 354.744C562.976 354.903 562.759 355.03 562.505 355.124C562.252 355.218 561.952 355.265 561.605 355.265Z" fill="#767675"/>
<path d="M393.567 355.135L392.927 352.976H390.269L389.629 355.135H388.685L391.006 347.562H392.211L394.532 355.135H393.567ZM391.647 348.528H391.549L390.486 352.184H392.71L391.647 348.528ZM396.958 347.562V352.108C396.958 352.477 396.969 352.806 396.991 353.095C397.013 353.384 397.07 353.634 397.164 353.844C397.258 354.046 397.403 354.202 397.598 354.31C397.801 354.419 398.079 354.473 398.434 354.473C398.788 354.473 399.063 354.419 399.258 354.31C399.461 354.202 399.609 354.046 399.703 353.844C399.797 353.634 399.855 353.384 399.877 353.095C399.898 352.806 399.909 352.477 399.909 352.108V347.562H400.821V351.891C400.821 352.455 400.792 352.947 400.734 353.366C400.683 353.786 400.571 354.137 400.397 354.419C400.231 354.701 399.989 354.914 399.671 355.059C399.36 355.196 398.947 355.265 398.434 355.265C397.92 355.265 397.504 355.196 397.186 355.059C396.875 354.914 396.633 354.701 396.459 354.419C396.293 354.137 396.181 353.786 396.123 353.366C396.072 352.947 396.047 352.455 396.047 351.891V347.562H396.958ZM406.827 354.126H406.772C406.707 354.27 406.631 354.411 406.545 354.549C406.458 354.686 406.346 354.809 406.208 354.918C406.078 355.019 405.919 355.102 405.731 355.167C405.543 355.232 405.319 355.265 405.058 355.265C404.234 355.265 403.619 354.932 403.214 354.267C402.816 353.601 402.617 352.647 402.617 351.403C402.617 350.101 402.838 349.114 403.279 348.441C403.72 347.768 404.4 347.432 405.319 347.432C405.673 347.432 405.98 347.479 406.241 347.573C406.501 347.667 406.722 347.794 406.903 347.953C407.091 348.112 407.246 348.293 407.369 348.495C407.492 348.69 407.593 348.889 407.673 349.092L406.892 349.45C406.827 349.284 406.751 349.128 406.664 348.983C406.584 348.831 406.483 348.701 406.36 348.593C406.244 348.477 406.103 348.387 405.937 348.322C405.771 348.256 405.575 348.224 405.351 348.224C404.744 348.224 404.295 348.452 404.006 348.907C403.724 349.363 403.583 349.971 403.583 350.73V351.902C403.583 352.285 403.612 352.636 403.67 352.954C403.728 353.265 403.822 353.536 403.952 353.768C404.089 353.999 404.263 354.18 404.472 354.31C404.689 354.433 404.953 354.495 405.264 354.495C405.756 354.495 406.14 354.346 406.414 354.05C406.689 353.753 406.827 353.37 406.827 352.9V352.119H405.232V351.392H407.673V355.135H406.827V354.126Z" fill="#767675"/>
<path d="M81.7592 334.104C80.8551 334.104 80.1933 333.761 79.7738 333.074C79.3616 332.387 79.1555 331.425 79.1555 330.188C79.1555 328.951 79.3616 327.989 79.7738 327.302C80.1933 326.615 80.8551 326.271 81.7592 326.271C82.6633 326.271 83.3215 326.615 83.7337 327.302C84.1532 327.989 84.363 328.951 84.363 330.188C84.363 331.425 84.1532 332.387 83.7337 333.074C83.3215 333.761 82.6633 334.104 81.7592 334.104ZM81.7592 333.312C82.0558 333.312 82.3089 333.251 82.5187 333.128C82.7284 333.005 82.8984 332.831 83.0286 332.607C83.1587 332.383 83.2528 332.119 83.3106 331.815C83.3757 331.511 83.4083 331.175 83.4083 330.806V329.569C83.4083 329.201 83.3757 328.864 83.3106 328.56C83.2528 328.257 83.1587 327.993 83.0286 327.768C82.8984 327.544 82.7284 327.371 82.5187 327.248C82.3089 327.125 82.0558 327.063 81.7592 327.063C81.4627 327.063 81.2095 327.125 80.9998 327.248C80.79 327.371 80.6201 327.544 80.4899 327.768C80.3597 327.993 80.2621 328.257 80.197 328.56C80.1391 328.864 80.1102 329.201 80.1102 329.569V330.806C80.1102 331.175 80.1391 331.511 80.197 331.815C80.2621 332.119 80.3597 332.383 80.4899 332.607C80.6201 332.831 80.79 333.005 80.9998 333.128C81.2095 333.251 81.4627 333.312 81.7592 333.312Z" fill="#767675"/>
<path d="M64.6364 188.07L67.5331 181.279H64.3001V182.689H63.4864V180.498H68.4552V181.301L65.6128 188.07H64.6364ZM74.9713 181.301H71.6515L71.4345 184.186H71.5104C71.6913 183.933 71.8938 183.731 72.118 183.579C72.3494 183.427 72.6641 183.351 73.0619 183.351C73.3873 183.351 73.6875 183.405 73.9623 183.514C74.2372 183.622 74.4758 183.778 74.6784 183.98C74.8809 184.176 75.0364 184.418 75.1449 184.707C75.2606 184.996 75.3185 185.326 75.3185 185.694C75.3185 186.063 75.2606 186.403 75.1449 186.714C75.0291 187.018 74.8592 187.282 74.635 187.506C74.418 187.723 74.1504 187.893 73.8321 188.016C73.5211 188.139 73.1667 188.201 72.7689 188.201C72.4507 188.201 72.1686 188.164 71.9227 188.092C71.684 188.02 71.4707 187.922 71.2826 187.799C71.0946 187.676 70.9282 187.539 70.7836 187.387C70.6461 187.235 70.5196 187.076 70.4038 186.909L71.0873 186.389C71.1814 186.541 71.279 186.678 71.3803 186.801C71.4887 186.924 71.6045 187.029 71.7274 187.116C71.8576 187.202 72.0059 187.271 72.1722 187.322C72.3386 187.365 72.5375 187.387 72.7689 187.387C73.2897 187.387 73.6839 187.249 73.9515 186.975C74.2191 186.7 74.3529 186.313 74.3529 185.814V185.705C74.3529 185.206 74.2191 184.819 73.9515 184.544C73.6839 184.27 73.2897 184.132 72.7689 184.132C72.4218 184.132 72.1469 184.197 71.9444 184.327C71.7491 184.45 71.5719 184.599 71.4128 184.772L70.6425 184.664L70.9137 180.498H74.9713V181.301ZM80.2107 180.042H81.0786V185.13H81.122L81.9791 184.176L83.563 182.472H84.6154L82.5432 184.685L84.8215 188.07H83.7692L81.914 185.217L81.0786 186.074V188.07H80.2107V180.042Z" fill="#767675"/>
<path d="M68.5203 285.339H63.5515V284.406L66.0251 282.128C66.3795 281.803 66.676 281.459 66.9147 281.097C67.1534 280.729 67.2727 280.36 67.2727 279.991V279.861C67.2727 279.441 67.157 279.101 66.9255 278.841C66.6941 278.58 66.3433 278.45 65.8732 278.45C65.6417 278.45 65.4392 278.483 65.2656 278.548C65.092 278.613 64.9402 278.703 64.81 278.819C64.687 278.935 64.5821 279.072 64.4953 279.231C64.4158 279.383 64.3507 279.55 64.3001 279.73L63.4864 279.416C63.5587 279.192 63.6564 278.975 63.7793 278.765C63.9095 278.548 64.0686 278.356 64.2567 278.19C64.452 278.023 64.6834 277.89 64.951 277.788C65.2259 277.687 65.5477 277.637 65.9166 277.637C66.2854 277.637 66.6145 277.691 66.9038 277.799C67.1931 277.908 67.4354 278.06 67.6307 278.255C67.826 278.45 67.9743 278.682 68.0755 278.949C68.184 279.217 68.2383 279.513 68.2383 279.839C68.2383 280.135 68.1949 280.41 68.1081 280.663C68.0285 280.917 67.9164 281.159 67.7718 281.39C67.6271 281.615 67.4499 281.835 67.2402 282.052C67.0376 282.269 66.817 282.486 66.5784 282.703L64.5387 284.537H68.5203V285.339ZM74.9713 278.57H71.6515L71.4345 281.455H71.5104C71.6913 281.202 71.8938 281 72.118 280.848C72.3494 280.696 72.6641 280.62 73.0619 280.62C73.3873 280.62 73.6875 280.674 73.9623 280.783C74.2372 280.891 74.4758 281.047 74.6784 281.249C74.8809 281.445 75.0364 281.687 75.1449 281.976C75.2606 282.265 75.3185 282.595 75.3185 282.963C75.3185 283.332 75.2606 283.672 75.1449 283.983C75.0291 284.287 74.8592 284.551 74.635 284.775C74.418 284.992 74.1504 285.162 73.8321 285.285C73.5211 285.408 73.1667 285.47 72.7689 285.47C72.4507 285.47 72.1686 285.433 71.9227 285.361C71.684 285.289 71.4707 285.191 71.2826 285.068C71.0946 284.945 70.9282 284.808 70.7836 284.656C70.6461 284.504 70.5196 284.345 70.4038 284.179L71.0873 283.658C71.1814 283.81 71.279 283.947 71.3803 284.07C71.4887 284.193 71.6045 284.298 71.7274 284.385C71.8576 284.471 72.0059 284.54 72.1722 284.591C72.3386 284.634 72.5375 284.656 72.7689 284.656C73.2897 284.656 73.6839 284.518 73.9515 284.244C74.2191 283.969 74.3529 283.582 74.3529 283.083V282.974C74.3529 282.475 74.2191 282.088 73.9515 281.813C73.6839 281.539 73.2897 281.401 72.7689 281.401C72.4218 281.401 72.1469 281.466 71.9444 281.596C71.7491 281.719 71.5719 281.868 71.4128 282.041L70.6425 281.933L70.9137 277.767H74.9713V278.57ZM80.2107 277.311H81.0786V282.399H81.122L81.9791 281.445L83.563 279.741H84.6154L82.5432 281.954L84.8215 285.339H83.7692L81.914 282.486L81.0786 283.343V285.339H80.2107V277.311Z" fill="#767675"/>
<path d="M56.8619 139.435V138.632H58.9774V132.535H58.9015L56.9921 134.315L56.4604 133.74L58.4675 131.863H59.8887V138.632H61.8416V139.435H56.8619ZM65.9925 139.565C65.0884 139.565 64.4266 139.222 64.0071 138.535C63.5949 137.848 63.3887 136.886 63.3887 135.649C63.3887 134.412 63.5949 133.45 64.0071 132.763C64.4266 132.076 65.0884 131.732 65.9925 131.732C66.8966 131.732 67.5548 132.076 67.967 132.763C68.3865 133.45 68.5963 134.412 68.5963 135.649C68.5963 136.886 68.3865 137.848 67.967 138.535C67.5548 139.222 66.8966 139.565 65.9925 139.565ZM65.9925 138.774C66.2891 138.774 66.5422 138.712 66.7519 138.589C66.9617 138.466 67.1317 138.293 67.2619 138.068C67.392 137.844 67.4861 137.58 67.5439 137.276C67.609 136.973 67.6416 136.636 67.6416 136.267V135.031C67.6416 134.662 67.609 134.325 67.5439 134.022C67.4861 133.718 67.392 133.454 67.2619 133.23C67.1317 133.005 66.9617 132.832 66.7519 132.709C66.5422 132.586 66.2891 132.524 65.9925 132.524C65.696 132.524 65.4428 132.586 65.2331 132.709C65.0233 132.832 64.8534 133.005 64.7232 133.23C64.593 133.454 64.4953 133.718 64.4303 134.022C64.3724 134.325 64.3435 134.662 64.3435 135.031V136.267C64.3435 136.636 64.3724 136.973 64.4303 137.276C64.4953 137.58 64.593 137.844 64.7232 138.068C64.8534 138.293 65.0233 138.466 65.2331 138.589C65.4428 138.712 65.696 138.774 65.9925 138.774ZM72.8232 139.565C71.9191 139.565 71.2573 139.222 70.8378 138.535C70.4255 137.848 70.2194 136.886 70.2194 135.649C70.2194 134.412 70.4255 133.45 70.8378 132.763C71.2573 132.076 71.9191 131.732 72.8232 131.732C73.7273 131.732 74.3854 132.076 74.7977 132.763C75.2172 133.45 75.4269 134.412 75.4269 135.649C75.4269 136.886 75.2172 137.848 74.7977 138.535C74.3854 139.222 73.7273 139.565 72.8232 139.565ZM72.8232 138.774C73.1197 138.774 73.3729 138.712 73.5826 138.589C73.7924 138.466 73.9623 138.293 74.0925 138.068C74.2227 137.844 74.3167 137.58 74.3746 137.276C74.4397 136.973 74.4722 136.636 74.4722 136.267V135.031C74.4722 134.662 74.4397 134.325 74.3746 134.022C74.3167 133.718 74.2227 133.454 74.0925 133.23C73.9623 133.005 73.7924 132.832 73.5826 132.709C73.3729 132.586 73.1197 132.524 72.8232 132.524C72.5266 132.524 72.2735 132.586 72.0637 132.709C71.854 132.832 71.684 133.005 71.5538 133.23C71.4236 133.454 71.326 133.718 71.2609 134.022C71.2031 134.325 71.1741 134.662 71.1741 135.031V136.267C71.1741 136.636 71.2031 136.973 71.2609 137.276C71.326 137.58 71.4236 137.844 71.5538 138.068C71.684 138.293 71.854 138.466 72.0637 138.589C72.2735 138.712 72.5266 138.774 72.8232 138.774ZM80.2107 131.407H81.0786V136.495H81.122L81.9791 135.54L83.563 133.837H84.6154L82.5432 136.05L84.8215 139.435H83.7692L81.914 136.582L81.0786 137.439V139.435H80.2107V131.407Z" fill="#767675"/>
<path d="M68.1406 229.935H64.8208L64.6038 232.821H64.6798C64.8606 232.568 65.0631 232.365 65.2873 232.213C65.5188 232.061 65.8334 231.986 66.2312 231.986C66.5567 231.986 66.8568 232.04 67.1317 232.148C67.4065 232.257 67.6452 232.412 67.8477 232.615C68.0502 232.81 68.2057 233.052 68.3142 233.342C68.4299 233.631 68.4878 233.96 68.4878 234.329C68.4878 234.698 68.4299 235.038 68.3142 235.349C68.1985 235.652 68.0285 235.916 67.8043 236.141C67.5873 236.358 67.3197 236.528 67.0015 236.651C66.6905 236.774 66.3361 236.835 65.9383 236.835C65.62 236.835 65.338 236.799 65.092 236.727C64.8534 236.654 64.64 236.557 64.452 236.434C64.2639 236.311 64.0976 236.173 63.9529 236.021C63.8155 235.869 63.6889 235.71 63.5732 235.544L64.2567 235.023C64.3507 235.175 64.4483 235.313 64.5496 235.435C64.6581 235.558 64.7738 235.663 64.8968 235.75C65.027 235.837 65.1752 235.906 65.3416 235.956C65.5079 236 65.7068 236.021 65.9383 236.021C66.459 236.021 66.8532 235.884 67.1208 235.609C67.3884 235.334 67.5222 234.947 67.5222 234.448V234.34C67.5222 233.841 67.3884 233.454 67.1208 233.179C66.8532 232.904 66.459 232.767 65.9383 232.767C65.5911 232.767 65.3163 232.832 65.1137 232.962C64.9185 233.085 64.7413 233.233 64.5821 233.407L63.8119 233.298L64.0831 229.132H68.1406V229.935ZM72.8232 236.835C71.9191 236.835 71.2573 236.491 70.8378 235.804C70.4255 235.117 70.2194 234.155 70.2194 232.919C70.2194 231.682 70.4255 230.72 70.8378 230.033C71.2573 229.346 71.9191 229.002 72.8232 229.002C73.7273 229.002 74.3854 229.346 74.7977 230.033C75.2172 230.72 75.4269 231.682 75.4269 232.919C75.4269 234.155 75.2172 235.117 74.7977 235.804C74.3854 236.491 73.7273 236.835 72.8232 236.835ZM72.8232 236.043C73.1197 236.043 73.3729 235.982 73.5826 235.859C73.7924 235.736 73.9623 235.562 74.0925 235.338C74.2227 235.114 74.3167 234.85 74.3746 234.546C74.4397 234.242 74.4722 233.906 74.4722 233.537V232.3C74.4722 231.931 74.4397 231.595 74.3746 231.291C74.3167 230.987 74.2227 230.723 74.0925 230.499C73.9623 230.275 73.7924 230.101 73.5826 229.978C73.3729 229.855 73.1197 229.794 72.8232 229.794C72.5266 229.794 72.2735 229.855 72.0637 229.978C71.854 230.101 71.684 230.275 71.5538 230.499C71.4236 230.723 71.326 230.987 71.2609 231.291C71.2031 231.595 71.1741 231.931 71.1741 232.3V233.537C71.1741 233.906 71.2031 234.242 71.2609 234.546C71.326 234.85 71.4236 235.114 71.5538 235.338C71.684 235.562 71.854 235.736 72.0637 235.859C72.2735 235.982 72.5266 236.043 72.8232 236.043ZM80.2107 228.677H81.0786V233.765H81.122L81.9791 232.81L83.563 231.107H84.6154L82.5432 233.32L84.8215 236.705H83.7692L81.914 233.852L81.0786 234.709V236.705H80.2107V228.677Z" fill="#767675"/>
<path d="M56.8619 90.801V89.9982H58.9774V83.901H58.9015L56.9921 85.6803L56.4604 85.1053L58.4675 83.2284H59.8887V89.9982H61.8416V90.801H56.8619ZM68.5203 90.801H63.5515V89.868L66.0251 87.5897C66.3795 87.2642 66.676 86.9207 66.9147 86.5591C67.1534 86.1902 67.2727 85.8213 67.2727 85.4524V85.3223C67.2727 84.9028 67.157 84.5628 66.9255 84.3025C66.6941 84.0421 66.3433 83.9119 65.8732 83.9119C65.6417 83.9119 65.4392 83.9444 65.2656 84.0095C65.092 84.0746 64.9402 84.165 64.81 84.2808C64.687 84.3965 64.5821 84.5339 64.4953 84.693C64.4158 84.8449 64.3507 85.0113 64.3001 85.1921L63.4864 84.8774C63.5587 84.6532 63.6564 84.4363 63.7793 84.2265C63.9095 84.0095 64.0686 83.8179 64.2567 83.6515C64.452 83.4852 64.6834 83.3514 64.951 83.2501C65.2259 83.1488 65.5477 83.0982 65.9166 83.0982C66.2854 83.0982 66.6145 83.1525 66.9038 83.2609C67.1931 83.3694 67.4354 83.5213 67.6307 83.7166C67.826 83.9119 67.9743 84.1433 68.0755 84.4109C68.184 84.6785 68.2383 84.9751 68.2383 85.3006C68.2383 85.5971 68.1949 85.8719 68.1081 86.1251C68.0285 86.3782 67.9164 86.6205 67.7718 86.852C67.6271 87.0762 67.4499 87.2968 67.2402 87.5138C67.0376 87.7307 66.817 87.9477 66.5784 88.1647L64.5387 89.9982H68.5203V90.801ZM74.9713 84.0312H71.6515L71.4345 86.9171H71.5104C71.6913 86.6639 71.8938 86.4614 72.118 86.3095C72.3494 86.1576 72.6641 86.0817 73.0619 86.0817C73.3873 86.0817 73.6875 86.1359 73.9623 86.2444C74.2372 86.3529 74.4758 86.5084 74.6784 86.7109C74.8809 86.9062 75.0364 87.1485 75.1449 87.4378C75.2606 87.7271 75.3185 88.0562 75.3185 88.4251C75.3185 88.794 75.2606 89.1339 75.1449 89.4449C75.0291 89.7487 74.8592 90.0127 74.635 90.2369C74.418 90.4539 74.1504 90.6238 73.8321 90.7468C73.5211 90.8697 73.1667 90.9312 72.7689 90.9312C72.4507 90.9312 72.1686 90.8951 71.9227 90.8227C71.684 90.7504 71.4707 90.6528 71.2826 90.5298C71.0946 90.4068 70.9282 90.2694 70.7836 90.1175C70.6461 89.9656 70.5196 89.8065 70.4038 89.6402L71.0873 89.1194C71.1814 89.2713 71.279 89.4087 71.3803 89.5317C71.4887 89.6546 71.6045 89.7595 71.7274 89.8463C71.8576 89.9331 72.0059 90.0018 72.1722 90.0524C72.3386 90.0958 72.5375 90.1175 72.7689 90.1175C73.2897 90.1175 73.6839 89.9801 73.9515 89.7053C74.2191 89.4304 74.3529 89.0435 74.3529 88.5444V88.4359C74.3529 87.9369 74.2191 87.5499 73.9515 87.2751C73.6839 87.0002 73.2897 86.8628 72.7689 86.8628C72.4218 86.8628 72.1469 86.9279 71.9444 87.0581C71.7491 87.1811 71.5719 87.3293 71.4128 87.5029L70.6425 87.3944L70.9137 83.2284H74.9713V84.0312ZM80.2107 82.7727H81.0786V87.8609H81.122L81.9791 86.9062L83.563 85.2029H84.6154L82.5432 87.4161L84.8215 90.801H83.7692L81.914 87.9477L81.0786 88.8048V90.801H80.2107V82.7727Z" fill="#767675"/>
<path d="M56.8619 42.166V41.3632H58.9774V35.266H58.9015L56.9921 37.0453L56.4604 36.4703L58.4675 34.5934H59.8887V41.3632H61.8416V42.166H56.8619ZM68.1406 35.3962H64.8208L64.6038 38.2821H64.6798C64.8606 38.0289 65.0631 37.8264 65.2873 37.6745C65.5188 37.5226 65.8334 37.4467 66.2312 37.4467C66.5567 37.4467 66.8568 37.5009 67.1317 37.6094C67.4065 37.7179 67.6452 37.8734 67.8477 38.0759C68.0502 38.2712 68.2057 38.5135 68.3142 38.8028C68.4299 39.0921 68.4878 39.4212 68.4878 39.7901C68.4878 40.1589 68.4299 40.4989 68.3142 40.8099C68.1985 41.1137 68.0285 41.3777 67.8043 41.6019C67.5873 41.8188 67.3197 41.9888 67.0015 42.1118C66.6905 42.2347 66.3361 42.2962 65.9383 42.2962C65.62 42.2962 65.338 42.26 65.092 42.1877C64.8534 42.1154 64.64 42.0177 64.452 41.8948C64.2639 41.7718 64.0976 41.6344 63.9529 41.4825C63.8155 41.3306 63.6889 41.1715 63.5732 41.0052L64.2567 40.4844C64.3507 40.6363 64.4483 40.7737 64.5496 40.8967C64.6581 41.0196 64.7738 41.1245 64.8968 41.2113C65.027 41.2981 65.1752 41.3668 65.3416 41.4174C65.5079 41.4608 65.7068 41.4825 65.9383 41.4825C66.459 41.4825 66.8532 41.3451 67.1208 41.0703C67.3884 40.7954 67.5222 40.4085 67.5222 39.9094V39.8009C67.5222 39.3019 67.3884 38.9149 67.1208 38.6401C66.8532 38.3652 66.459 38.2278 65.9383 38.2278C65.5911 38.2278 65.3163 38.2929 65.1137 38.4231C64.9185 38.5461 64.7413 38.6943 64.5821 38.8679L63.8119 38.7594L64.0831 34.5934H68.1406V35.3962ZM72.8232 42.2962C71.9191 42.2962 71.2573 41.9527 70.8378 41.2655C70.4255 40.5784 70.2194 39.6165 70.2194 38.3797C70.2194 37.1429 70.4255 36.181 70.8378 35.4939C71.2573 34.8067 71.9191 34.4632 72.8232 34.4632C73.7273 34.4632 74.3854 34.8067 74.7977 35.4939C75.2172 36.181 75.4269 37.1429 75.4269 38.3797C75.4269 39.6165 75.2172 40.5784 74.7977 41.2655C74.3854 41.9527 73.7273 42.2962 72.8232 42.2962ZM72.8232 41.5042C73.1197 41.5042 73.3729 41.4427 73.5826 41.3198C73.7924 41.1968 73.9623 41.0233 74.0925 40.799C74.2227 40.5748 74.3167 40.3108 74.3746 40.0071C74.4397 39.7033 74.4722 39.367 74.4722 38.9981V37.7613C74.4722 37.3924 74.4397 37.0561 74.3746 36.7523C74.3167 36.4486 74.2227 36.1846 74.0925 35.9604C73.9623 35.7362 73.7924 35.5626 73.5826 35.4396C73.3729 35.3167 73.1197 35.2552 72.8232 35.2552C72.5266 35.2552 72.2735 35.3167 72.0637 35.4396C71.854 35.5626 71.684 35.7362 71.5538 35.9604C71.4236 36.1846 71.326 36.4486 71.2609 36.7523C71.2031 37.0561 71.1741 37.3924 71.1741 37.7613V38.9981C71.1741 39.367 71.2031 39.7033 71.2609 40.0071C71.326 40.3108 71.4236 40.5748 71.5538 40.799C71.684 41.0233 71.854 41.1968 72.0637 41.3198C72.2735 41.4427 72.5266 41.5042 72.8232 41.5042ZM80.2107 34.1377H81.0786V39.2259H81.122L81.9791 38.2712L83.563 36.5679H84.6154L82.5432 38.7811L84.8215 42.166H83.7692L81.914 39.3127L81.0786 40.1698V42.166H80.2107V34.1377Z" fill="#767675"/>
<path d="M107 265C156.986 256.486 192.976 179.054 300.406 167.214C366.057 159.978 405.272 169.573 459.202 147.991C506.551 129.042 539.159 100.482 574 70" stroke="#3862F8" stroke-width="3"/>
</svg>
